<svg xmlns="http://www.w3.org/2000/svg" viewBox="0 0 200 200">
  <defs>
    <linearGradient id="bgBar2" x1="0%" y1="0%" x2="100%" y2="100%">
      <stop offset="0%" stop-color="#1a0d2e"/>
      <stop offset="100%" stop-color="#0a0818"/>
    </linearGradient>
    <linearGradient id="goldBar2" x1="0%" y1="0%" x2="0%" y2="100%">
      <stop offset="0%" stop-color="#fff7a0"/>
      <stop offset="25%" stop-color="#f5d878"/>
      <stop offset="50%" stop-color="#d4af37"/>
      <stop offset="75%" stop-color="#b8930a"/>
      <stop offset="100%" stop-color="#8b6914"/>
    </linearGradient>
    <linearGradient id="goldFrame2" x1="0%" y1="0%" x2="0%" y2="100%">
      <stop offset="0%" stop-color="#fff0a0"/>
      <stop offset="50%" stop-color="#d4af37"/>
      <stop offset="100%" stop-color="#7a5c00"/>
    </linearGradient>
  </defs>
  <rect width="200" height="200" rx="18" fill="url(#bgBar2)"/>
  <rect x="4" y="4" width="192" height="192" rx="15" fill="none" stroke="url(#goldFrame2)" stroke-width="3"/>
  <!-- Top bar -->
  <rect x="25" y="55" width="150" height="38" rx="8" fill="url(#goldBar2)" stroke="#8b6914" stroke-width="1.5"/>
  <rect x="30" y="60" width="140" height="12" rx="5" fill="#fff7a0" opacity="0.22"/>
  <text x="100" y="82" font-family="Georgia,serif" font-size="22" font-weight="900" text-anchor="middle" fill="#1a0d2e" letter-spacing="3">BAR</text>
  <!-- Bottom bar -->
  <rect x="25" y="107" width="150" height="38" rx="8" fill="url(#goldBar2)" stroke="#8b6914" stroke-width="1.5"/>
  <rect x="30" y="112" width="140" height="12" rx="5" fill="#fff7a0" opacity="0.22"/>
  <text x="100" y="134" font-family="Georgia,serif" font-size="22" font-weight="900" text-anchor="middle" fill="#1a0d2e" letter-spacing="3">BAR</text>
  <!-- Corner diamonds -->
  <polygon points="20,20 26,14 32,20 26,26" fill="#d4af37"/>
  <polygon points="180,20 186,14 192,20 186,26" fill="#d4af37"/>
  <polygon points="20,180 26,174 32,180 26,186" fill="#d4af37"/>
  <polygon points="180,180 186,174 192,180 186,186" fill="#d4af37"/>
</svg>
