<svg xmlns="http://www.w3.org/2000/svg" viewBox="0 0 200 200">
  <defs>
    <radialGradient id="coinFace" cx="36%" cy="30%" r="68%">
      <stop offset="0%"   stop-color="#fffde0"/>
      <stop offset="18%"  stop-color="#f9ee80"/>
      <stop offset="45%"  stop-color="#d4af37"/>
      <stop offset="72%"  stop-color="#b8930a"/>
      <stop offset="100%" stop-color="#7a5c00"/>
    </radialGradient>
    <radialGradient id="coinRim" cx="50%" cy="50%" r="50%">
      <stop offset="0%"   stop-color="#c8a820"/>
      <stop offset="100%" stop-color="#5a4000"/>
    </radialGradient>
    <linearGradient id="bgCoin" x1="0%" y1="0%" x2="100%" y2="100%">
      <stop offset="0%"   stop-color="#1a0d2e"/>
      <stop offset="100%" stop-color="#0a0818"/>
    </linearGradient>
    <linearGradient id="goldFrameCoin" x1="0%" y1="0%" x2="0%" y2="100%">
      <stop offset="0%"   stop-color="#fffde0"/>
      <stop offset="50%"  stop-color="#d4af37"/>
      <stop offset="100%" stop-color="#7a5c00"/>
    </linearGradient>
    <radialGradient id="coinShine" cx="32%" cy="26%" r="48%">
      <stop offset="0%"   stop-color="#ffffff" stop-opacity="0.55"/>
      <stop offset="60%"  stop-color="#ffffff" stop-opacity="0.08"/>
      <stop offset="100%" stop-color="#ffffff" stop-opacity="0"/>
    </radialGradient>
    <filter id="coinGlow" x="-20%" y="-20%" width="140%" height="140%">
      <feGaussianBlur stdDeviation="4" result="blur"/>
      <feMerge><feMergeNode in="blur"/><feMergeNode in="SourceGraphic"/></feMerge>
    </filter>
  </defs>
  <rect width="200" height="200" rx="18" fill="url(#bgCoin)"/>
  <rect x="3" y="3" width="194" height="194" rx="16" fill="none" stroke="url(#goldFrameCoin)" stroke-width="3"/>
  <circle cx="100" cy="100" r="82" fill="#d4af37" opacity="0.12" filter="url(#coinGlow)"/>
  <circle cx="100" cy="100" r="77" fill="url(#coinRim)"/>
  <g stroke="#f0d060" stroke-width="2" opacity="0.5">
    <line x1="100" y1="24" x2="100" y2="30" transform="rotate(0,100,100)"/>
    <line x1="100" y1="24" x2="100" y2="30" transform="rotate(18,100,100)"/>
    <line x1="100" y1="24" x2="100" y2="30" transform="rotate(36,100,100)"/>
    <line x1="100" y1="24" x2="100" y2="30" transform="rotate(54,100,100)"/>
    <line x1="100" y1="24" x2="100" y2="30" transform="rotate(72,100,100)"/>
    <line x1="100" y1="24" x2="100" y2="30" transform="rotate(90,100,100)"/>
    <line x1="100" y1="24" x2="100" y2="30" transform="rotate(108,100,100)"/>
    <line x1="100" y1="24" x2="100" y2="30" transform="rotate(126,100,100)"/>
    <line x1="100" y1="24" x2="100" y2="30" transform="rotate(144,100,100)"/>
    <line x1="100" y1="24" x2="100" y2="30" transform="rotate(162,100,100)"/>
    <line x1="100" y1="24" x2="100" y2="30" transform="rotate(180,100,100)"/>
    <line x1="100" y1="24" x2="100" y2="30" transform="rotate(198,100,100)"/>
    <line x1="100" y1="24" x2="100" y2="30" transform="rotate(216,100,100)"/>
    <line x1="100" y1="24" x2="100" y2="30" transform="rotate(234,100,100)"/>
    <line x1="100" y1="24" x2="100" y2="30" transform="rotate(252,100,100)"/>
    <line x1="100" y1="24" x2="100" y2="30" transform="rotate(270,100,100)"/>
    <line x1="100" y1="24" x2="100" y2="30" transform="rotate(288,100,100)"/>
    <line x1="100" y1="24" x2="100" y2="30" transform="rotate(306,100,100)"/>
    <line x1="100" y1="24" x2="100" y2="30" transform="rotate(324,100,100)"/>
    <line x1="100" y1="24" x2="100" y2="30" transform="rotate(342,100,100)"/>
  </g>
  <circle cx="100" cy="100" r="72" fill="url(#coinFace)"/>
  <circle cx="100" cy="100" r="66" fill="none" stroke="#9a7800" stroke-width="1.8" opacity="0.7"/>
  <circle cx="100" cy="100" r="60" fill="none" stroke="#d4af37" stroke-width="0.8" opacity="0.4"/>
  <circle cx="100" cy="100" r="54" fill="none" stroke="#c8a820" stroke-width="0.6" opacity="0.35"/>
  <!-- Subtle recessed oval at coin centre — creates depth for engraved value text -->
  <ellipse cx="100" cy="104" rx="38" ry="22" fill="#8a6200" opacity="0.18"/>
  <ellipse cx="100" cy="103" rx="36" ry="20" fill="#6a4800" opacity="0.12"/>
  <circle cx="100" cy="100" r="72" fill="url(#coinShine)"/>
  <g opacity="0.75"><circle cx="20" cy="20" r="2.5" fill="#d4af37"/>
    <line x1="20" y1="14" x2="20" y2="26" stroke="#d4af37" stroke-width="1.2"/>
    <line x1="14" y1="20" x2="26" y2="20" stroke="#d4af37" stroke-width="1.2"/>
  </g>
  <g opacity="0.5"><circle cx="180" cy="20" r="1.8" fill="#d4af37"/>
    <line x1="180" y1="15" x2="180" y2="25" stroke="#d4af37" stroke-width="1"/>
    <line x1="175" y1="20" x2="185" y2="20" stroke="#d4af37" stroke-width="1"/>
  </g>
  <g opacity="0.5"><circle cx="20" cy="180" r="1.8" fill="#d4af37"/>
    <line x1="20" y1="175" x2="20" y2="185" stroke="#d4af37" stroke-width="1"/>
    <line x1="15" y1="180" x2="25" y2="180" stroke="#d4af37" stroke-width="1"/>
  </g>
  <g opacity="0.4"><circle cx="180" cy="180" r="1.5" fill="#d4af37"/>
    <line x1="180" y1="175" x2="180" y2="185" stroke="#d4af37" stroke-width="0.9"/>
    <line x1="175" y1="180" x2="185" y2="180" stroke="#d4af37" stroke-width="0.9"/>
  </g>
</svg>
