<svg xmlns="http://www.w3.org/2000/svg" viewBox="0 0 200 200">
  <defs>
    <radialGradient id="face_grand" cx="36%" cy="30%" r="68%">
      <stop offset="0%"   stop-color="#fff0e0"/>
      <stop offset="15%"  stop-color="#ffa070"/>
      <stop offset="40%"  stop-color="#ff6b35"/>
      <stop offset="70%"  stop-color="#c03010"/>
      <stop offset="100%" stop-color="#600808"/>
    </radialGradient>
    <radialGradient id="rim_grand" cx="50%" cy="50%" r="50%">
      <stop offset="0%"   stop-color="#c03010"/>
      <stop offset="100%" stop-color="#380800"/>
    </radialGradient>
    <linearGradient id="bg_grand" x1="0%" y1="0%" x2="100%" y2="100%">
      <stop offset="0%"   stop-color="#180400"/>
      <stop offset="100%" stop-color="#080100"/>
    </linearGradient>
    <linearGradient id="frame_grand" x1="0%" y1="0%" x2="0%" y2="100%">
      <stop offset="0%"   stop-color="#ffe0c0"/>
      <stop offset="50%"  stop-color="#ff6b35"/>
      <stop offset="100%" stop-color="#600808"/>
    </linearGradient>
    <linearGradient id="label_grand" x1="0%" y1="0%" x2="0%" y2="100%">
      <stop offset="0%"   stop-color="#ffffff"/>
      <stop offset="40%"  stop-color="#ff9060"/>
      <stop offset="100%" stop-color="#600808"/>
    </linearGradient>
    <radialGradient id="shine_grand" cx="32%" cy="26%" r="48%">
      <stop offset="0%"   stop-color="#ffffff" stop-opacity="0.55"/>
      <stop offset="60%"  stop-color="#ffffff" stop-opacity="0.07"/>
      <stop offset="100%" stop-color="#ffffff" stop-opacity="0"/>
    </radialGradient>
    <filter id="glow_grand" x="-20%" y="-20%" width="140%" height="140%">
      <feGaussianBlur stdDeviation="5" result="blur"/>
      <feMerge><feMergeNode in="blur"/><feMergeNode in="SourceGraphic"/></feMerge>
    </filter>
    <filter id="tglow_grand">
      <feGaussianBlur stdDeviation="3" result="blur"/>
      <feMerge><feMergeNode in="blur"/><feMergeNode in="SourceGraphic"/></feMerge>
    </filter>
  </defs>

  <rect width="200" height="200" rx="18" fill="url(#bg_grand)"/>
  <rect x="3" y="3" width="194" height="194" rx="16" fill="none" stroke="url(#frame_grand)" stroke-width="3.5"/>
  <circle cx="100" cy="100" r="86" fill="#ff6b35" opacity="0.15" filter="url(#glow_grand)"/>
  <circle cx="100" cy="100" r="77" fill="url(#rim_grand)"/>

  <g stroke="#ff8050" stroke-width="2.2" opacity="0.55">
    <line x1="100" y1="24" x2="100" y2="30" transform="rotate(0,100,100)"/>
    <line x1="100" y1="24" x2="100" y2="30" transform="rotate(18,100,100)"/>
    <line x1="100" y1="24" x2="100" y2="30" transform="rotate(36,100,100)"/>
    <line x1="100" y1="24" x2="100" y2="30" transform="rotate(54,100,100)"/>
    <line x1="100" y1="24" x2="100" y2="30" transform="rotate(72,100,100)"/>
    <line x1="100" y1="24" x2="100" y2="30" transform="rotate(90,100,100)"/>
    <line x1="100" y1="24" x2="100" y2="30" transform="rotate(108,100,100)"/>
    <line x1="100" y1="24" x2="100" y2="30" transform="rotate(126,100,100)"/>
    <line x1="100" y1="24" x2="100" y2="30" transform="rotate(144,100,100)"/>
    <line x1="100" y1="24" x2="100" y2="30" transform="rotate(162,100,100)"/>
    <line x1="100" y1="24" x2="100" y2="30" transform="rotate(180,100,100)"/>
    <line x1="100" y1="24" x2="100" y2="30" transform="rotate(198,100,100)"/>
    <line x1="100" y1="24" x2="100" y2="30" transform="rotate(216,100,100)"/>
    <line x1="100" y1="24" x2="100" y2="30" transform="rotate(234,100,100)"/>
    <line x1="100" y1="24" x2="100" y2="30" transform="rotate(252,100,100)"/>
    <line x1="100" y1="24" x2="100" y2="30" transform="rotate(270,100,100)"/>
    <line x1="100" y1="24" x2="100" y2="30" transform="rotate(288,100,100)"/>
    <line x1="100" y1="24" x2="100" y2="30" transform="rotate(306,100,100)"/>
    <line x1="100" y1="24" x2="100" y2="30" transform="rotate(324,100,100)"/>
    <line x1="100" y1="24" x2="100" y2="30" transform="rotate(342,100,100)"/>
  </g>

  <circle cx="100" cy="100" r="72" fill="url(#face_grand)"/>
  <circle cx="100" cy="100" r="66" fill="none" stroke="#600808" stroke-width="2" opacity="0.8"/>
  <circle cx="100" cy="100" r="60" fill="none" stroke="#ff9060" stroke-width="0.8" opacity="0.45"/>
  <circle cx="100" cy="100" r="54" fill="none" stroke="#c03010" stroke-width="0.6" opacity="0.35"/>

  <!-- Small crown above text, centered -->
  <g transform="translate(100,82)">
    <path d="M-14,10 L-14,-4 L-7,4 L0,-12 L7,4 L14,-4 L14,10 Z"
          fill="#600808" stroke="#ff9060" stroke-width="1" opacity="0.9"/>
    <rect x="-14" y="6" width="28" height="6" rx="1.5" fill="#c03010" stroke="#ff9060" stroke-width="0.8"/>
    <circle cx="0"   cy="-6" r="3.2" fill="#ff6b35" stroke="#ffe0c0" stroke-width="1"/>
    <circle cx="-9"  cy="1"  r="2.2" fill="#ff6b35" stroke="#ffe0c0" stroke-width="0.8"/>
    <circle cx="9"   cy="1"  r="2.2" fill="#ff6b35" stroke="#ffe0c0" stroke-width="0.8"/>
    <circle cx="0"   cy="-6" r="1.3" fill="#ffe0c0" opacity="0.85"/>
  </g>

  <circle cx="100" cy="100" r="72" fill="url(#shine_grand)"/>

  <text x="100" y="112" font-family="'Cinzel',Georgia,serif" font-size="22" font-weight="900"
        text-anchor="middle" fill="#200000" letter-spacing="3">GRAND</text>
  <text x="100" y="110" font-family="'Cinzel',Georgia,serif" font-size="22" font-weight="900"
        text-anchor="middle" fill="url(#label_grand)" letter-spacing="3" filter="url(#tglow_grand)">GRAND</text>
  <line x1="62" y1="119" x2="138" y2="119" stroke="#ff6b35" stroke-width="1.2" opacity="0.6"/>

  <g opacity="0.85"><circle cx="20" cy="20" r="3" fill="#ff9060"/>
    <line x1="20" y1="13" x2="20" y2="27" stroke="#ff9060" stroke-width="1.4"/>
    <line x1="13" y1="20" x2="27" y2="20" stroke="#ff9060" stroke-width="1.4"/>
  </g>
  <g opacity="0.65"><circle cx="180" cy="20" r="2.2" fill="#ff9060"/>
    <line x1="180" y1="14" x2="180" y2="26" stroke="#ff9060" stroke-width="1.1"/>
    <line x1="174" y1="20" x2="186" y2="20" stroke="#ff9060" stroke-width="1.1"/>
  </g>
  <g opacity="0.5"><circle cx="20" cy="180" r="1.8" fill="#ff9060"/>
    <line x1="20" y1="174" x2="20" y2="186" stroke="#ff9060" stroke-width="1"/>
    <line x1="14" y1="180" x2="26" y2="180" stroke="#ff9060" stroke-width="1"/>
  </g>
  <g opacity="0.4"><circle cx="180" cy="180" r="1.5" fill="#ff9060"/>
    <line x1="180" y1="175" x2="180" y2="185" stroke="#ff9060" stroke-width="0.9"/>
    <line x1="175" y1="180" x2="185" y2="180" stroke="#ff9060" stroke-width="0.9"/>
  </g>
</svg>
